{
  "accessors": [
    {
      "bufferView": 2,
      "componentType": 5126,
      "count": 2581,
      "max": [
        0.7911670207977295,
        0.40423598885536194,
        3.2268190383911133
      ],
      "min": [
        -0.5024840235710144,
        -0.5224829912185669,
        -0.004478000104427338
      ],
      "type": "VEC3"
    },
    {
      "bufferView": 2,
      "byteOffset": 30972,
      "componentType": 5126,
      "count": 2581,
      "max": [
        0.9994162321090698,
        0.9994015693664551,
        0.9995565414428711
      ],
      "min": [
        -0.9997704029083252,
        -0.9999899864196777,
        -0.9999839067459106
      ],
      "type": "VEC3"
    },
    {
      "bufferView": 1,
      "componentType": 5126,
      "count": 2581,
      "max": [
        0.9940720200538635,
        0.9954630136489868
      ],
      "min": [
        0.005927999969571829,
        0.0036269999109208584
      ],
      "type": "VEC2"
    },
    {
      "bufferView": 0,
      "componentType": 5125,
      "count": 11715,
      "type": "SCALAR"
    },
    {
      "bufferView": 2,
      "byteOffset": 61944,
      "componentType": 5126,
      "count": 639,
      "max": [
        -0.10152100026607513,
        0.3363099992275238,
        1.785971999168396
      ],
      "min": [
        -0.281686007976532,
        -0.00993099994957447,
        1.4192689657211304
      ],
      "type": "VEC3"
    },
    {
      "bufferView": 2,
      "byteOffset": 69612,
      "componentType": 5126,
      "count": 639,
      "max": [
        0.9948835372924805,
        0.970751166343689,
        0.9835253357887268
      ],
      "min": [
        -0.9991165399551392,
        -0.9998506903648376,
        -0.9950175285339355
      ],
      "type": "VEC3"
    },
    {
      "bufferView": 1,
      "byteOffset": 20648,
      "componentType": 5126,
      "count": 639,
      "max": [
        0.8814089894294739,
        0.9909189939498901
      ],
      "min": [
        0.017619000747799873,
        0.010742000304162502
      ],
      "type": "VEC2"
    },
    {
      "bufferView": 0,
      "byteOffset": 46860,
      "componentType": 5125,
      "count": 2340,
      "type": "SCALAR"
    },
    {
      "bufferView": 2,
      "byteOffset": 77280,
      "componentType": 5126,
      "count": 1755,
      "max": [
        0.427621990442276,
        0.2771089971065521,
        3.6714279651641846
      ],
      "min": [
        -0.07963400334119797,
        -0.2952269911766052,
        2.821044921875
      ],
      "type": "VEC3"
    },
    {
      "bufferView": 2,
      "byteOffset": 98340,
      "componentType": 5126,
      "count": 1755,
      "max": [
        0.9998114109039307,
        0.9978942275047302,
        0.9969503879547119
      ],
      "min": [
        -0.9999659657478333,
        -0.9995740652084351,
        -0.9981003999710083
      ],
      "type": "VEC3"
    },
    {
      "bufferView": 1,
      "byteOffset": 25760,
      "componentType": 5126,
      "count": 1755,
      "max": [
        0.9932090044021606,
        0.9947080016136169
      ],
      "min": [
        0.007584999781101942,
        0.002314999932423234
      ],
      "type": "VEC2"
    },
    {
      "bufferView": 0,
      "byteOffset": 56220,
      "componentType": 5125,
      "count": 9387,
      "type": "SCALAR"
    }
  ],
  "asset": {
    "extras": {
      "author": "Tech developers (https://sketchfab.com/Deepu.Dra)",
      "license": "CC-BY-4.0 (http://creativecommons.org/licenses/by/4.0/)",
      "source": "https://sketchfab.com/3d-models/police-e6d0109b5a934c179475eb871765cf1a",
      "title": "Police"
    },
    "generator": "Sketchfab-12.68.0",
    "version": "2.0"
  },
  "bufferViews": [
    {
      "buffer": 0,
      "byteLength": 93768,
      "name": "floatBufferViews",
      "target": 34963
    },
    {
      "buffer": 0,
      "byteLength": 39800,
      "byteOffset": 93768,
      "byteStride": 8,
      "name": "floatBufferViews",
      "target": 34962
    },
    {
      "buffer": 0,
      "byteLength": 119400,
      "byteOffset": 133568,
      "byteStride": 12,
      "name": "floatBufferViews",
      "target": 34962
    }
  ],
  "buffers": [
    {
      "byteLength": 252968,
      "uri": "scene.bin"
    }
  ],
  "images": [
    {
      "uri": "textures/policeman_body_baseColor.jpeg"
    },
    {
      "uri": "textures/policeman_gun_baseColor.jpeg"
    },
    {
      "uri": "textures/policeman_head_baseColor.jpeg"
    }
  ],
  "materials": [
    {
      "doubleSided": true,
      "name": "policeman_body",
      "pbrMetallicRoughness": {
        "baseColorTexture": {
          "index": 0
        }
      }
    },
    {
      "doubleSided": true,
      "name": "policeman_gun",
      "pbrMetallicRoughness": {
        "baseColorTexture": {
          "index": 1
        },
        "metallicFactor": 0.0
      }
    },
    {
      "doubleSided": true,
      "name": "policeman_head",
      "pbrMetallicRoughness": {
        "baseColorTexture": {
          "index": 2
        },
        "metallicFactor": 0.6899312337239584
      }
    }
  ],
  "meshes": [
    {
      "name": "Object_0",
      "primitives": [
        {
          "attributes": {
            "NORMAL": 1,
            "POSITION": 0,
            "TEXCOORD_0": 2
          },
          "indices": 3,
          "material": 0,
          "mode": 4
        }
      ]
    },
    {
      "name": "Object_1",
      "primitives": [
        {
          "attributes": {
            "NORMAL": 5,
            "POSITION": 4,
            "TEXCOORD_0": 6
          },
          "indices": 7,
          "material": 1,
          "mode": 4
        }
      ]
    },
    {
      "name": "Object_2",
      "primitives": [
        {
          "attributes": {
            "NORMAL": 9,
            "POSITION": 8,
            "TEXCOORD_0": 10
          },
          "indices": 11,
          "material": 2,
          "mode": 4
        }
      ]
    }
  ],
  "nodes": [
    {
      "children": [
        1
      ],
      "matrix": [
        1.0,
        0.0,
        0.0,
        0.0,
        0.0,
        2.220446049250313e-16,
        -1.0,
        0.0,
        0.0,
        1.0,
        2.220446049250313e-16,
        0.0,
        0.0,
        0.0,
        0.0,
        1.0
      ],
      "name": "Sketchfab_model"
    },
    {
      "children": [
        2,
        3,
        4
      ],
      "name": "policeman.obj.cleaner.materialmerger.gles"
    },
    {
      "mesh": 0,
      "name": "Object_2"
    },
    {
      "mesh": 1,
      "name": "Object_3"
    },
    {
      "mesh": 2,
      "name": "Object_4"
    }
  ],
  "samplers": [
    {
      "magFilter": 9729,
      "minFilter": 9987,
      "wrapS": 10497,
      "wrapT": 10497
    }
  ],
  "scene": 0,
  "scenes": [
    {
      "name": "Sketchfab_Scene",
      "nodes": [
        0
      ]
    }
  ],
  "textures": [
    {
      "sampler": 0,
      "source": 0
    },
    {
      "sampler": 0,
      "source": 1
    },
    {
      "sampler": 0,
      "source": 2
    }
  ]
}
